<svg width="41" height="40" viewBox="0 0 41 40" fill="none" xmlns="http://www.w3.org/2000/svg">
  <circle cx="20.5" cy="20" r="19.5" fill="#6E41E2" stroke="white"/>
  <path d="M15.5 16C15.5 13.2386 17.7386 11 20.5 11C23.2614 11 25.5 13.2386 25.5 16C25.5 18.7614 23.2614 21 20.5 21C17.7386 21 15.5 18.7614 15.5 16ZM20.5 19C22.1569 19 23.5 17.6569 23.5 16C23.5 14.3431 22.1569 13 20.5 13C18.8431 13 17.5 14.3431 17.5 16C17.5 17.6569 18.8431 19 20.5 19Z" fill="white"/>
  <path d="M14.8431 24.3431C13.3429 25.8434 12.5 27.8783 12.5 30H14.5C14.5 28.4087 15.1321 26.8826 16.2574 25.7574C17.3826 24.6321 18.9087 24 20.5 24C22.0913 24 23.6174 24.6321 24.7426 25.7574C25.8679 26.8826 26.5 28.4087 26.5 30H28.5C28.5 27.8783 27.6571 25.8434 26.1569 24.3431C24.6566 22.8429 22.6217 22 20.5 22C18.3783 22 16.3434 22.8429 14.8431 24.3431Z" fill="white"/>
  </svg>
  