<svg width="114" height="103" viewBox="0 0 114 103" fill="none" xmlns="http://www.w3.org/2000/svg">
<g clip-path="url(#clip0_59_984)">
<path d="M113 39.3893C112.959 39.3893 112.919 39.3767 112.886 39.3532L57.5739 0.582176C57.4056 0.464738 57.2056 0.401976 57.0008 0.402328C56.7959 0.40268 56.5961 0.466126 56.4282 0.584141L1.51486 39.3528C1.47142 39.3835 1.41767 39.3955 1.36541 39.3863C1.31316 39.3771 1.26669 39.3473 1.23622 39.3036C1.20576 39.2599 1.19379 39.2058 1.20296 39.1532C1.21213 39.1006 1.24169 39.0538 1.28512 39.0231L56.1985 0.254474C56.4336 0.0892773 56.7134 0.000476199 57.0001 1.90985e-06C57.2868 -0.000472379 57.5669 0.0874022 57.8025 0.25182L113.114 39.0228C113.149 39.0473 113.175 39.0824 113.189 39.1229C113.203 39.1635 113.204 39.2074 113.191 39.2483C113.178 39.2892 113.153 39.3249 113.118 39.3503C113.084 39.3756 113.042 39.3893 113 39.3893L113 39.3893Z" fill="#3F3D56"/>
<path d="M4.65308 40.7633L57.0555 1.67432L109.855 43.5447L59.7555 73.4377L32.5555 67.1974L4.65308 40.7633Z" fill="#E6E6E6"/>
<path d="M34.8515 91.9015H8.96347C8.80451 91.9017 8.64707 91.8703 8.50015 91.8093C8.35323 91.7482 8.21971 91.6585 8.10724 91.5455C7.99476 91.4324 7.90554 91.2981 7.84466 91.1504C7.78378 91.0026 7.75244 90.8441 7.75244 90.6841C7.75244 90.5241 7.78378 90.3657 7.84466 90.2179C7.90554 90.0701 7.99476 89.9359 8.10724 89.8228C8.21971 89.7097 8.35323 89.6201 8.50015 89.559C8.64707 89.4979 8.80451 89.4666 8.96347 89.4668H34.8515C35.0105 89.4666 35.1679 89.4979 35.3149 89.559C35.4618 89.6201 35.5953 89.7097 35.7078 89.8228C35.8202 89.9359 35.9095 90.0701 35.9704 90.2179C36.0312 90.3657 36.0626 90.5241 36.0626 90.6841C36.0626 90.8441 36.0312 91.0026 35.9704 91.1504C35.9095 91.2981 35.8202 91.4324 35.7078 91.5455C35.5953 91.6585 35.4618 91.7482 35.3149 91.8093C35.1679 91.8703 35.0105 91.9017 34.8515 91.9015Z" fill="#6C63FF"/>
<path d="M18.2515 86.6678H8.96347C8.80451 86.668 8.64707 86.6367 8.50015 86.5756C8.35323 86.5145 8.21971 86.4249 8.10724 86.3118C7.99476 86.1987 7.90554 86.0645 7.84466 85.9167C7.78378 85.7689 7.75244 85.6105 7.75244 85.4505C7.75244 85.2905 7.78378 85.1321 7.84466 84.9843C7.90554 84.8365 7.99476 84.7022 8.10724 84.5891C8.21971 84.4761 8.35323 84.3864 8.50015 84.3254C8.64707 84.2643 8.80451 84.2329 8.96347 84.2332H18.2515C18.4105 84.2329 18.5679 84.2643 18.7149 84.3254C18.8618 84.3864 18.9953 84.4761 19.1078 84.5891C19.2202 84.7022 19.3095 84.8365 19.3704 84.9843C19.4312 85.1321 19.4626 85.2905 19.4626 85.4505C19.4626 85.6105 19.4312 85.7689 19.3704 85.9167C19.3095 86.0645 19.2202 86.1987 19.1078 86.3118C18.9953 86.4249 18.8618 86.5145 18.7149 86.5756C18.5679 86.6367 18.4105 86.668 18.2515 86.6678Z" fill="#6C63FF"/>
<path d="M57.7921 62.5355C57.5954 62.5357 57.4004 62.4973 57.2183 62.4224L24.9001 48.9255V6.6779C24.9006 6.30431 25.0482 5.94616 25.3107 5.682C25.5731 5.41783 25.929 5.26923 26.3001 5.2688H88.3001C88.6713 5.26923 89.0272 5.41783 89.2896 5.682C89.5521 5.94616 89.6997 6.30431 89.7001 6.6779V48.955L89.6394 48.9811L58.3833 62.4158C58.1962 62.495 57.9952 62.5357 57.7921 62.5355Z" fill="white"/>
<path d="M57.792 62.6361C57.5822 62.6364 57.3744 62.5954 57.1801 62.5156L24.8 48.9928V6.67796C24.8005 6.27769 24.9587 5.89394 25.2399 5.61091C25.5211 5.32787 25.9024 5.16867 26.3 5.16821H88.3C88.6977 5.16867 89.079 5.32787 89.3602 5.61091C89.6414 5.89394 89.7996 6.27769 89.8 6.67796V49.0215L58.4225 62.5084C58.2229 62.5929 58.0086 62.6363 57.792 62.6361ZM25.2 48.7239L57.3327 62.1434C57.6324 62.2658 57.968 62.2638 58.2663 62.1378L89.4 48.7557V6.67796C89.3997 6.38443 89.2837 6.10303 89.0775 5.89547C88.8713 5.68792 88.5917 5.57116 88.3001 5.57081H26.3001C26.0084 5.57116 25.7288 5.68792 25.5226 5.89547C25.3164 6.10303 25.2004 6.38443 25.2001 6.67796L25.2 48.7239Z" fill="#3F3D56"/>
<path d="M112.6 38.9868H112.56L89.6 48.8545L58.186 62.3557C58.0633 62.4077 57.9316 62.4348 57.7984 62.4355C57.6652 62.4362 57.5332 62.4104 57.41 62.3597L25 48.8263L1.47598 39.0029L1.44004 38.9868H1.4C1.02882 38.9872 0.672966 39.1358 0.410504 39.4C0.148042 39.6642 0.00041185 40.0223 0 40.3959V101.591C0.000412378 101.965 0.148043 102.323 0.410504 102.587C0.672966 102.851 1.02882 103 1.4 103H112.6C112.971 103 113.327 102.851 113.589 102.587C113.852 102.323 114 101.965 114 101.591V40.3959C114 40.0223 113.852 39.6642 113.589 39.4C113.327 39.1358 112.971 38.9872 112.6 38.9868ZM113.6 101.591C113.6 101.858 113.495 102.114 113.307 102.303C113.119 102.491 112.865 102.597 112.6 102.598H1.4C1.13482 102.597 0.880525 102.491 0.693011 102.303C0.505498 102.114 0.400106 101.858 0.4 101.591V40.3959C0.400363 40.1356 0.500672 39.8856 0.679956 39.698C0.85924 39.5104 1.10362 39.3999 1.36201 39.3894L25 49.2611L57.2561 62.7321C57.6052 62.8751 57.9965 62.8729 58.344 62.7261L89.6 49.2913L112.64 39.3894C112.898 39.4006 113.142 39.5115 113.32 39.699C113.499 39.8864 113.599 40.1361 113.6 40.3959V101.591Z" fill="#3F3D56"/>
<path d="M57.4688 50.556C56.2757 50.5582 55.1143 50.1699 54.1596 49.4496L54.1005 49.4049L41.6383 39.8014C41.0611 39.3563 40.5767 38.8012 40.2127 38.1677C39.8487 37.5342 39.6123 36.8347 39.5169 36.1092C39.4215 35.3837 39.469 34.6464 39.6566 33.9394C39.8443 33.2324 40.1685 32.5695 40.6107 31.9886C41.053 31.4077 41.6045 30.9202 42.2339 30.5538C42.8634 30.1875 43.5583 29.9495 44.2791 29.8535C44.9999 29.7574 45.7324 29.8052 46.4349 29.9941C47.1373 30.183 47.7959 30.5093 48.3731 30.9544L56.4452 37.1842L75.5207 12.1452C75.9632 11.5644 76.5149 11.0771 77.1444 10.711C77.774 10.3448 78.469 10.1071 79.1898 10.0113C79.9107 9.91553 80.6432 9.96361 81.3456 10.1528C82.0479 10.342 82.7064 10.6685 83.2834 11.1138L83.1648 11.2759L83.2865 11.1162C84.4504 12.0165 85.2119 13.3448 85.404 14.8095C85.5961 16.2742 85.2031 17.7559 84.3112 18.9293L61.8737 48.3812C61.3548 49.0599 60.6875 49.6091 59.9236 49.9863C59.1597 50.3634 58.3197 50.5584 57.4688 50.556Z" fill="#6C63FF"/>
</g>
<defs>
<clipPath id="clip0_59_984">
<rect width="114" height="103" fill="white"/>
</clipPath>
</defs>
</svg>
