<svg viewBox="0 0 36 36"  xmlns="http://www.w3.org/2000/svg">
<path fill-rule="evenodd" clip-rule="evenodd" d="M30.3173 7.10579C30.452 6.70153 30.3468 6.25585 30.0455 5.95453C29.7442 5.65322 29.2985 5.54801 28.8942 5.68276L8.64424 12.4328C8.18486 12.5859 7.875 13.0158 7.875 13.5C7.875 13.9843 8.18486 14.4142 8.64425 14.5673L17.702 17.5866C18.0379 17.6985 18.3015 17.9621 18.4135 18.2981L21.4327 27.3558C21.5859 27.8152 22.0158 28.125 22.5 28.125C22.9842 28.125 23.4141 27.8152 23.5673 27.3558L30.3173 7.10579ZM12.5576 13.5L27.4712 8.52881L22.5 23.4425L20.548 17.5866C20.2121 16.5788 19.4213 15.788 18.4135 15.452L12.5576 13.5Z" />
<path d="M15.4205 22.1705C15.8598 21.7312 15.8598 21.0189 15.4205 20.5796C14.9812 20.1402 14.2688 20.1402 13.8295 20.5796L9.3295 25.0796C8.89017 25.5189 8.89017 26.2312 9.3295 26.6705C9.76884 27.1099 10.4812 27.1099 10.9205 26.6705L15.4205 22.1705Z"/>
<path d="M16.5455 26.2046C16.9848 26.6439 16.9848 27.3562 16.5455 27.7955L13.1705 31.1705C12.7312 31.6099 12.0188 31.6099 11.5795 31.1705C11.1402 30.7312 11.1402 30.0189 11.5795 29.5796L14.9545 26.2046C15.3938 25.7652 16.1062 25.7652 16.5455 26.2046Z"/>
<path d="M9.7955 21.0455C10.2348 20.6062 10.2348 19.8939 9.7955 19.4546C9.35615 19.0152 8.64384 19.0152 8.2045 19.4546L4.8295 22.8296C4.39017 23.2689 4.39017 23.9812 4.8295 24.4205C5.26884 24.8599 5.98116 24.8599 6.4205 24.4205L9.7955 21.0455Z"/>
</svg>
