<svg width="32" height="64" viewBox="0 0 32 64" fill="none" xmlns="http://www.w3.org/2000/svg">
<path d="M16 26C10.4772 26 6 21.5228 6 16C6 10.4772 10.4772 6 16 6C21.5228 6 26 10.4772 26 16C25.9939 21.5203 21.5203 25.9939 16 26ZM15 19V21H17V19H15ZM15 11V17H17V11H15Z" fill="#181624"/>
<path d="M15.99 58C10.4685 57.9945 5.99632 53.5149 6 47.9933C6.00368 42.4718 10.4818 37.9982 16.0033 38C21.5249 38.0018 26 42.4784 26 48C25.9967 53.5254 21.5154 58.0022 15.99 58ZM8 48.172C8.04732 52.5732 11.6411 56.1095 16.0425 56.086C20.444 56.0622 23.9995 52.4875 23.9995 48.086C23.9995 43.6845 20.444 40.1098 16.0425 40.086C11.6411 40.0625 8.04732 43.5988 8 48V48.172ZM17 53H15V51H17V53ZM17 49H15V43H17V49Z" fill="#181624"/>
<rect x="0.5" y="0.5" width="31" height="63" rx="4.5" stroke="#7B61FF" stroke-dasharray="10 5"/>
</svg>
