<svg width="32" height="64" viewBox="0 0 32 64" fill="none" xmlns="http://www.w3.org/2000/svg">
<path d="M23 26H9C7.89543 26 7 25.1046 7 24V10C7 8.89543 7.89543 8 9 8H11V6H13V8H19V6H21V8H23C24.1046 8 25 8.89543 25 10V24C25 25.1046 24.1046 26 23 26ZM9 14V24H23V14H9ZM9 10V12H23V10H9ZM21 22H19V20H21V22ZM17 22H15V20H17V22ZM13 22H11V20H13V22ZM21 18H19V16H21V18ZM17 18H15V16H17V18ZM13 18H11V16H13V18Z" fill="#181624"/>
<path d="M22.999 58H8.99902C7.89445 58 6.99902 57.1046 6.99902 56V42C6.99902 40.8954 7.89445 40 8.99902 40H10.999V38H12.999V40H18.999V38H20.999V40H22.999C24.1036 40 24.999 40.8954 24.999 42V56C24.999 57.1046 24.1036 58 22.999 58ZM8.99902 46V56H22.999V46H8.99902ZM8.99902 42V44H22.999V42H8.99902Z" fill="#181624"/>
<rect x="0.5" y="0.5" width="31" height="63" rx="4.5" stroke="#7B61FF" stroke-dasharray="10 5"/>
</svg>
