<svg width="232" height="64" viewBox="0 0 232 64" fill="none" xmlns="http://www.w3.org/2000/svg">
<path d="M35.535 23.515L27.05 32L35.535 40.485L36.95 39.071L29.878 32L36.95 24.929L35.535 23.515Z" fill="#181624"/>
<path d="M52.465 40.485L60.95 32L52.465 23.515L51.05 24.929L58.122 32L51.05 39.071L52.465 40.485Z" fill="#181624"/>
<path d="M71.515 28.465L80 36.95L88.485 28.465L87.071 27.05L80 34.122L72.929 27.05L71.515 28.465Z" fill="#181624"/>
<path d="M112.485 35.535L104 27.05L95.515 35.535L96.929 36.95L104 29.878L111.071 36.95L112.485 35.535Z" fill="#181624"/>
<path d="M124.288 32L130.298 38.01L131.712 36.596L127.112 31.996L131.712 27.396L130.298 25.99L124.288 32Z" fill="#181624"/>
<path d="M155.713 32L149.702 25.99L148.288 27.404L152.888 32.004L148.288 36.597L149.702 38.011L155.713 32Z" fill="#181624"/>
<path d="M176 35.713L182.01 29.703L180.597 28.288L176 32.888L171.404 28.288L169.99 29.702L176 35.713Z" fill="#181624"/>
<path d="M200 28.288L193.99 34.298L195.404 35.713L200.004 31.113L204.604 35.713L206.011 34.298L200 28.288Z" fill="#181624"/>
<rect x="0.5" y="0.5" width="231" height="63" rx="4.5" stroke="#7B61FF" stroke-dasharray="10 5"/>
</svg>
