<svg width="32" height="160" viewBox="0 0 32 160" fill="none" xmlns="http://www.w3.org/2000/svg">
<path d="M16 22C12.6863 22 10 19.3137 10 16C10 12.6863 12.6863 10 16 10C19.3137 10 22 12.6863 22 16C22 17.5913 21.3679 19.1174 20.2426 20.2426C19.1174 21.3679 17.5913 22 16 22Z" fill="#181624"/>
<path d="M16 53C13.2386 53 11 50.7614 11 48C11 45.2386 13.2386 43 16 43C18.7614 43 21 45.2386 21 48C21 50.7614 18.7614 53 16 53Z" fill="#181624"/>
<path d="M16 84C13.7909 84 12 82.2091 12 80C12 77.7909 13.7909 76 16 76C18.2091 76 20 77.7909 20 80C20 81.0609 19.5786 82.0783 18.8284 82.8284C18.0783 83.5786 17.0609 84 16 84Z" fill="#181624"/>
<path d="M16 115C14.3431 115 13 113.657 13 112C13 110.343 14.3431 109 16 109C17.6569 109 19 110.343 19 112C19 112.796 18.6839 113.559 18.1213 114.121C17.5587 114.684 16.7956 115 16 115Z" fill="#181624"/>
<path d="M16 146C14.8954 146 14 145.105 14 144C14 142.895 14.8954 142 16 142C17.1046 142 18 142.895 18 144C18 144.53 17.7893 145.039 17.4142 145.414C17.0391 145.789 16.5304 146 16 146Z" fill="#181624"/>
<rect x="0.5" y="0.5" width="31" height="159" rx="4.5" stroke="#7B61FF" stroke-dasharray="10 5"/>
</svg>
