<svg width="32" height="64" viewBox="0 0 32 64" fill="none" xmlns="http://www.w3.org/2000/svg">
<path d="M9.5 24.5C8.94772 24.5 8.5 24.0523 8.5 23.5V8.50005C8.5 7.94776 8.94772 7.50002 9.5 7.50002H15.88C16.2602 7.4974 16.6089 7.71054 16.78 8.05005L17.5 9.50005H22.5C23.0523 9.50005 23.5 9.94776 23.5 10.5V18.5C23.5 19.0523 23.0523 19.5 22.5 19.5H17.11C16.7334 19.4989 16.3895 19.2863 16.22 18.95L15.5 17.5H10.5V23.5C10.5 24.0523 10.0523 24.5 9.5 24.5ZM10.5 9.50005V15.5H16.5L17.5 17.5H21.5V11.5H16.5L15.5 9.50005H10.5Z" fill="#181624"/>
<path d="M17.66 40.3C17.5649 39.8343 17.1553 39.5 16.68 39.5H9.5C8.94772 39.5 8.5 39.9477 8.5 40.5V55.5C8.5 56.0523 8.94772 56.5 9.5 56.5C10.0523 56.5 10.5 56.0523 10.5 55.5V49.5H16.1L16.34 50.7C16.4307 51.1683 16.8431 51.5048 17.32 51.5H22.5C23.0523 51.5 23.5 51.0523 23.5 50.5V42.5C23.5 41.9477 23.0523 41.5 22.5 41.5H17.9L17.66 40.3Z" fill="#181624"/>
<rect x="0.5" y="0.5" width="31" height="63" rx="4.5" stroke="#7B61FF" stroke-dasharray="10 5"/>
</svg>
