<svg width="32" height="64" viewBox="0 0 32 64" fill="none" xmlns="http://www.w3.org/2000/svg">
<path d="M16 26C10.4772 26 6 21.5228 6 16C6 10.4772 10.4772 6 16 6C21.5228 6 26 10.4772 26 16C25.9939 21.5203 21.5203 25.9939 16 26ZM15 21V23H17V21H15ZM16 11C17.1046 11 18 11.8954 18 13C18.0035 13.5307 17.7904 14.0399 17.41 14.41L16.17 15.67C15.4214 16.4217 15.0008 17.4391 15 18.5V19H17C16.9223 17.925 17.3559 16.8763 18.17 16.17L19.07 15.25C19.6681 14.6543 20.003 13.8441 20 13C20 10.7909 18.2091 9 16 9C13.7909 9 12 10.7909 12 13H14C14 11.8954 14.8954 11 16 11Z" fill="#181624"/>
<path d="M16 58C10.4797 57.994 6.00606 53.5204 6 48V47.8C6.10993 42.3045 10.6346 37.928 16.1307 38.0009C21.6268 38.0738 26.0337 42.5689 25.9978 48.0654C25.9619 53.5618 21.4966 57.9989 16 58ZM15.984 56H16C20.4167 55.9956 23.9942 52.4127 23.992 47.996C23.9898 43.5793 20.4087 40 15.992 40C11.5753 40 7.99421 43.5793 7.992 47.996C7.98979 52.4127 11.5673 55.9956 15.984 56ZM17 54H15V52H17V54ZM17 51H15C14.9684 49.6977 15.6461 48.4808 16.77 47.822C17.43 47.316 18 46.88 18 46C18 44.8954 17.1046 44 16 44C14.8954 44 14 44.8954 14 46H12V45.91C12.0161 44.481 12.7933 43.169 14.039 42.4684C15.2846 41.7678 16.8094 41.785 18.039 42.5134C19.2685 43.2419 20.0161 44.571 20 46C19.9284 47.079 19.3497 48.0603 18.44 48.645C17.6177 49.1612 17.0847 50.0328 17 51Z" fill="#181624"/>
<rect x="0.5" y="0.5" width="31" height="63" rx="4.5" stroke="#7B61FF" stroke-dasharray="10 5"/>
</svg>
