<svg width="32" height="64" viewBox="0 0 32 64" fill="none" xmlns="http://www.w3.org/2000/svg">
<path d="M16 25C14.7369 23.9227 13.5662 22.7416 12.5 21.4691C10.9 19.5581 9 16.712 9 14.0001C8.99858 11.1676 10.7042 8.61344 13.3211 7.52945C15.9379 6.44545 18.9501 7.04529 20.952 9.04905C22.2685 10.3597 23.0059 12.1424 23 14.0001C23 16.712 21.1 19.5581 19.5 21.4691C18.4338 22.7416 17.2631 23.9227 16 25ZM16 9.00005C13.2399 9.00336 11.0033 11.24 11 14.0001C11 15.166 11.527 17.1851 14.035 20.1861C14.6531 20.9241 15.309 21.6297 16 22.3001C16.691 21.6305 17.3472 20.9259 17.966 20.1891C20.473 17.1841 21 15.1651 21 14.0001C20.9967 11.24 18.7601 9.00336 16 9.00005ZM16 17.0001C14.3431 17.0001 13 15.6569 13 14.0001C13 12.3432 14.3431 11.0001 16 11.0001C17.6569 11.0001 19 12.3432 19 14.0001C19 14.7957 18.6839 15.5588 18.1213 16.1214C17.5587 16.684 16.7957 17.0001 16 17.0001Z" fill="#181624"/>
<path d="M16 57C14.7369 55.9227 13.5662 54.7416 12.5 53.4691C10.9 51.5581 9 48.712 9 46.0001C8.99858 43.1676 10.7042 40.6134 13.3211 39.5294C15.9379 38.4455 18.9501 39.0453 20.952 41.0491C22.2685 42.3597 23.0059 44.1424 23 46.0001C23 48.712 21.1 51.5581 19.5 53.4691C18.4338 54.7416 17.2631 55.9227 16 57ZM16 43.0001C14.9282 43.0001 13.9378 43.5718 13.4019 44.5001C12.866 45.4283 12.866 46.5718 13.4019 47.5001C13.9378 48.4283 14.9282 49.0001 16 49.0001C17.6569 49.0001 19 47.6569 19 46.0001C19 44.3432 17.6569 43.0001 16 43.0001Z" fill="#181624"/>
<rect x="0.5" y="0.5" width="31" height="63" rx="4.5" stroke="#7B61FF" stroke-dasharray="10 5"/>
</svg>
