<svg width="32" height="64" viewBox="0 0 32 64" fill="none" xmlns="http://www.w3.org/2000/svg">
<path d="M24 24H8C6.89543 24 6 23.1046 6 22V9.913C6.04661 8.84255 6.92853 7.99899 8 8H24C25.1046 8 26 8.89543 26 10V22C26 23.1046 25.1046 24 24 24ZM8 11.868V22H24V11.868L16 17.2L8 11.868ZM8.8 10L16 14.8L23.2 10H8.8Z" fill="#181624"/>
<path d="M24 58H8C6.89543 58 6 57.1046 6 56V45.049C6.03375 44.3779 6.39728 43.7669 6.971 43.417L14.971 38.617C15.6041 38.2374 16.3949 38.2374 17.028 38.617L25.028 43.417C25.6292 43.7798 25.9976 44.4298 26 45.132V56C26 57.1046 25.1046 58 24 58ZM8 45.868V56H24V45.868L16 51.201L8 45.868ZM16 40.332L9.316 44.342L16 48.798L22.683 44.342L16 40.332Z" fill="#181624"/>
<rect x="0.5" y="0.5" width="31" height="63" rx="4.5" stroke="#7B61FF" stroke-dasharray="10 5"/>
</svg>
