<svg width="24" height="24" viewBox="0 0 24 24" fill="none" xmlns="http://www.w3.org/2000/svg">
<path d="M12 9.75C12.4142 9.75 12.75 10.0858 12.75 10.5V10.628C13.6239 10.9369 14.25 11.7703 14.25 12.75C14.25 13.1642 13.9142 13.5 13.5 13.5C13.0858 13.5 12.75 13.1642 12.75 12.75C12.75 12.3358 12.4142 12 12 12C11.5858 12 11.25 12.3358 11.25 12.75C11.25 13.1642 11.5858 13.5 12 13.5C13.2426 13.5 14.25 14.5074 14.25 15.75C14.25 16.7297 13.6239 17.5631 12.75 17.872V18C12.75 18.4142 12.4142 18.75 12 18.75C11.5858 18.75 11.25 18.4142 11.25 18V17.872C10.3761 17.5631 9.75 16.7297 9.75 15.75C9.75 15.3358 10.0858 15 10.5 15C10.9142 15 11.25 15.3358 11.25 15.75C11.25 16.1642 11.5858 16.5 12 16.5C12.4142 16.5 12.75 16.1642 12.75 15.75C12.75 15.3358 12.4142 15 12 15C10.7574 15 9.75 13.9926 9.75 12.75C9.75 11.7703 10.3761 10.9369 11.25 10.628V10.5C11.25 10.0858 11.5858 9.75 12 9.75Z" fill="#181624"/>
<path fill-rule="evenodd" clip-rule="evenodd" d="M8.24995 7.80013C8.20531 7.75195 8.15528 7.69718 8.10126 7.63681C7.89157 7.40244 7.6144 7.07545 7.35849 6.71718C7.10988 6.36912 6.84749 5.94531 6.70649 5.52234C6.57581 5.13033 6.46907 4.47032 6.96965 3.96969C7.27999 3.65932 7.64008 3.50016 8.02546 3.48111C8.37158 3.464 8.67894 3.56522 8.87932 3.63745C8.96038 3.66667 9.02557 3.69136 9.0811 3.71239C9.1953 3.75565 9.26867 3.78344 9.35539 3.80336C9.40398 3.81452 9.42951 3.81533 9.43991 3.81493C9.44614 3.81469 9.44664 3.81421 9.44681 3.81403C9.48017 3.7993 9.5319 3.76555 9.62863 3.64837C9.67637 3.59054 9.7234 3.52732 9.78609 3.44306L9.79429 3.43204C9.85677 3.34807 9.9336 3.24519 10.0204 3.14228C10.1982 2.93138 10.4365 2.69683 10.7776 2.52109C11.1213 2.34397 11.5233 2.25 12 2.25C12.4766 2.25 12.8787 2.34397 13.2224 2.52109C13.5635 2.69684 13.8018 2.93139 13.9796 3.14228C14.0664 3.2452 14.1432 3.34807 14.2057 3.43205L14.2138 3.44301C14.2765 3.52729 14.3236 3.59052 14.3713 3.64836C14.468 3.76553 14.5197 3.79924 14.5531 3.81399L14.5553 3.8145C14.5564 3.81463 14.5583 3.81482 14.5611 3.81493C14.5731 3.81539 14.6005 3.81436 14.651 3.8029C14.7406 3.78259 14.8177 3.75377 14.9361 3.70953C14.9914 3.68884 15.0558 3.66477 15.1347 3.63663C15.3348 3.56525 15.6434 3.46396 15.988 3.48113C16.3752 3.50041 16.7363 3.66262 17.0415 3.98107C17.5254 4.48602 17.409 5.14161 17.2794 5.5253C17.1375 5.945 16.8779 6.36687 16.6315 6.71477C16.3781 7.07248 16.1044 7.39913 15.8974 7.63338C15.8433 7.69462 15.7932 7.75009 15.7487 7.79877C16.6955 8.73253 17.6299 9.96638 18.3896 11.2077C18.9175 12.0703 19.3762 12.961 19.7051 13.7922C20.0285 14.6092 20.25 15.4268 20.25 16.125C20.25 17.9954 19.2224 19.4325 17.6947 20.3672C16.1867 21.2899 14.1646 21.75 12 21.75C9.83538 21.75 7.81331 21.2899 6.30527 20.3672C4.77757 19.4325 3.75 17.9954 3.75 16.125C3.75 15.4268 3.97151 14.6092 4.29486 13.7922C4.62381 12.961 5.08245 12.0703 5.61042 11.2077C6.36972 9.96698 7.30359 8.73373 8.24995 7.80013ZM10.0531 5.18601C10.3947 5.03507 10.6243 4.79843 10.7854 4.60329C10.8584 4.51492 10.927 4.42261 10.9836 4.34643L10.9977 4.3275C11.0612 4.24216 11.1133 4.17307 11.1671 4.1092C11.2706 3.98651 11.3604 3.90819 11.4647 3.85447C11.5663 3.80211 11.7267 3.75 12 3.75C12.2733 3.75 12.4337 3.80211 12.5353 3.85446C12.6396 3.90818 12.7294 3.98648 12.8328 4.10917C12.8867 4.17304 12.9387 4.24213 13.0022 4.32746L13.0163 4.34639C13.0729 4.42257 13.1416 4.51489 13.2145 4.60327C13.3756 4.79842 13.6052 5.03506 13.9468 5.18601C14.333 5.35663 14.7008 5.32967 14.9827 5.26578C15.1803 5.22099 15.3955 5.1402 15.5414 5.08544C15.5789 5.07136 15.6118 5.059 15.6387 5.04942C15.7661 5.00395 15.8375 4.98697 15.8779 4.98145C15.8729 4.99956 15.8666 5.02065 15.8583 5.04501C15.7863 5.25812 15.6259 5.53937 15.4075 5.84772C15.196 6.14626 14.96 6.42899 14.7734 6.64004C14.7059 6.71645 14.6458 6.7824 14.597 6.83509C14.4903 6.77943 14.3713 6.75 14.25 6.75001L9.75 6.75C9.62816 6.75 9.5087 6.77967 9.4017 6.83578C9.35156 6.78244 9.2893 6.71504 9.21913 6.63662C9.03039 6.42567 8.79193 6.14329 8.57909 5.84532C8.35895 5.53712 8.19946 5.25781 8.12951 5.04797C8.12049 5.02091 8.11383 4.99812 8.10894 4.97916C8.14233 4.97985 8.21277 4.99166 8.37069 5.04858C8.39689 5.05803 8.4294 5.07038 8.46664 5.08453C8.6102 5.13909 8.82422 5.22042 9.01965 5.2653C9.30174 5.33008 9.66766 5.35634 10.0531 5.18601ZM15.8939 4.9015C15.8928 4.89363 15.8932 4.88906 15.8936 4.88875C15.894 4.88844 15.8946 4.89237 15.8939 4.9015ZM8.09657 4.90017C8.09703 4.90051 8.09742 4.90522 8.09635 4.91329C8.09558 4.90386 8.09611 4.89983 8.09657 4.90017ZM9.99927 8.25C8.99073 9.03736 7.8283 10.4572 6.88983 11.9907C6.39692 12.7961 5.9805 13.6091 5.68961 14.3441C5.39312 15.0933 5.25 15.7047 5.25 16.125C5.25 17.3612 5.90136 18.3616 7.08813 19.0877C8.29455 19.8259 10.0225 20.25 12 20.25C13.9775 20.25 15.7054 19.8259 16.9119 19.0877C18.0986 18.3616 18.75 17.3612 18.75 16.125C18.75 15.7047 18.6069 15.0933 18.3104 14.3441C18.0195 13.6091 17.6031 12.7961 17.1102 11.9907C16.1717 10.4572 15.0093 9.03737 14.0007 8.25001L9.99927 8.25Z" fill="#181624"/>
</svg>
