<svg width="32" height="64" viewBox="0 0 32 64" fill="none" xmlns="http://www.w3.org/2000/svg">
<path d="M22 18C20.8954 18 20 17.1046 20 16C20 14.8954 20.8954 14 22 14C23.1046 14 24 14.8954 24 16C24 16.5304 23.7893 17.0391 23.4142 17.4142C23.0391 17.7893 22.5304 18 22 18ZM16 18C14.8954 18 14 17.1046 14 16C14 14.8954 14.8954 14 16 14C17.1046 14 18 14.8954 18 16C18 16.5304 17.7893 17.0391 17.4142 17.4142C17.0391 17.7893 16.5304 18 16 18ZM10 18C8.89543 18 8 17.1046 8 16C8 14.8954 8.89543 14 10 14C11.1046 14 12 14.8954 12 16C12 16.5304 11.7893 17.0391 11.4142 17.4142C11.0391 17.7893 10.5304 18 10 18Z" fill="#181624"/>
<path d="M16 56C14.8954 56 14 55.1046 14 54C14 52.8954 14.8954 52 16 52C17.1046 52 18 52.8954 18 54C18 55.1046 17.1046 56 16 56ZM16 50C14.8954 50 14 49.1046 14 48C14 46.8954 14.8954 46 16 46C17.1046 46 18 46.8954 18 48C18 48.5304 17.7893 49.0391 17.4142 49.4142C17.0391 49.7893 16.5304 50 16 50ZM16 44C14.8954 44 14 43.1046 14 42C14 40.8954 14.8954 40 16 40C17.1046 40 18 40.8954 18 42C18 42.5304 17.7893 43.0391 17.4142 43.4142C17.0391 43.7893 16.5304 44 16 44Z" fill="#181624"/>
<rect x="0.5" y="0.5" width="31" height="63" rx="4.5" stroke="#7B61FF" stroke-dasharray="10 5"/>
</svg>
