<svg width="32" height="64" viewBox="0 0 32 64" fill="none" xmlns="http://www.w3.org/2000/svg">
<path d="M9.25 14.5C8.83579 14.5 8.5 14.8358 8.5 15.25V17.5C8.5 17.9142 8.83579 18.25 9.25 18.25C9.66421 18.25 10 17.9142 10 17.5V16H11.5C11.9142 16 12.25 15.6642 12.25 15.25C12.25 14.8358 11.9142 14.5 11.5 14.5H9.25Z" fill="#181624"/>
<path d="M23.5 22.75C23.5 23.1642 23.1642 23.5 22.75 23.5H20.5C20.0858 23.5 19.75 23.1642 19.75 22.75C19.75 22.3358 20.0858 22 20.5 22H22V20.5C22 20.0858 22.3358 19.75 22.75 19.75C23.1642 19.75 23.5 20.0858 23.5 20.5V22.75Z" fill="#181624"/>
<path d="M16.75 15.25C16.75 14.8358 16.4142 14.5 16 14.5C15.5858 14.5 15.25 14.8358 15.25 15.25V15.378C14.3761 15.6869 13.75 16.5203 13.75 17.5C13.75 18.7426 14.7574 19.75 16 19.75C16.4142 19.75 16.75 20.0858 16.75 20.5C16.75 20.9142 16.4142 21.25 16 21.25C15.5858 21.25 15.25 20.9142 15.25 20.5C15.25 20.0858 14.9142 19.75 14.5 19.75C14.0858 19.75 13.75 20.0858 13.75 20.5C13.75 21.4797 14.3761 22.3131 15.25 22.622V22.75C15.25 23.1642 15.5858 23.5 16 23.5C16.4142 23.5 16.75 23.1642 16.75 22.75V22.622C17.6239 22.3131 18.25 21.4797 18.25 20.5C18.25 19.2574 17.2426 18.25 16 18.25C15.5858 18.25 15.25 17.9142 15.25 17.5C15.25 17.0858 15.5858 16.75 16 16.75C16.4142 16.75 16.75 17.0858 16.75 17.5C16.75 17.9142 17.0858 18.25 17.5 18.25C17.9142 18.25 18.25 17.9142 18.25 17.5C18.25 16.5203 17.6239 15.6869 16.75 15.378V15.25Z" fill="#181624"/>
<path fill-rule="evenodd" clip-rule="evenodd" d="M20.8304 6.32668C21.0349 6.42703 21.1827 6.61491 21.2321 6.8373L21.8069 9.42377L22.6029 9.26456C22.9955 9.18605 23.3805 9.4297 23.4776 9.81809L24.0856 12.25H25C25.4142 12.25 25.75 12.5858 25.75 13V25C25.75 25.4142 25.4142 25.75 25 25.75H7C6.58579 25.75 6.25 25.4142 6.25 25V13C6.25 12.5858 6.58579 12.25 7 12.25H7.58234L20.1807 6.32139C20.3868 6.22438 20.6258 6.22633 20.8304 6.32668ZM19.9712 8.07774L20.3357 9.71801L13.6399 11.0572L19.9712 8.07774ZM22.5394 12.25L22.1958 10.8757L15.3243 12.25H22.5394ZM7.75 24.25V13.75H24.25V24.25H7.75Z" fill="#181624"/>
<path d="M16.75 44.25C16.75 43.8358 16.4142 43.5 16 43.5C15.5858 43.5 15.25 43.8358 15.25 44.25V44.378C14.3761 44.6869 13.75 45.5203 13.75 46.5C13.75 47.7426 14.7574 48.75 16 48.75C16.4142 48.75 16.75 49.0858 16.75 49.5C16.75 49.9142 16.4142 50.25 16 50.25C15.5858 50.25 15.25 49.9142 15.25 49.5C15.25 49.0858 14.9142 48.75 14.5 48.75C14.0858 48.75 13.75 49.0858 13.75 49.5C13.75 50.4796 14.3761 51.3131 15.25 51.6219V51.75C15.25 52.1642 15.5858 52.5 16 52.5C16.4142 52.5 16.75 52.1642 16.75 51.75V51.6219C17.6239 51.3131 18.25 50.4796 18.25 49.5C18.25 48.2573 17.2426 47.25 16 47.25C15.5858 47.25 15.25 46.9142 15.25 46.5C15.25 46.0858 15.5858 45.75 16 45.75C16.4142 45.75 16.75 46.0858 16.75 46.5C16.75 46.9142 17.0858 47.25 17.5 47.25C17.9142 47.25 18.25 46.9142 18.25 46.5C18.25 45.5203 17.6239 44.6869 16.75 44.378V44.25Z" fill="#181624"/>
<path d="M9.25 43.5C9.25 43.0858 9.58579 42.75 10 42.75H12.25C12.6642 42.75 13 43.0858 13 43.5C13 43.9142 12.6642 44.25 12.25 44.25H10.75V45.75C10.75 46.1642 10.4142 46.5 10 46.5C9.58579 46.5 9.25 46.1642 9.25 45.75V43.5Z" fill="#181624"/>
<path d="M22 53.25C22.4142 53.25 22.75 52.9142 22.75 52.5V50.25C22.75 49.8358 22.4142 49.5 22 49.5C21.5858 49.5 21.25 49.8358 21.25 50.25V51.75H19.75C19.3358 51.75 19 52.0858 19 52.5C19 52.9142 19.3358 53.25 19.75 53.25H22Z" fill="#181624"/>
<path fill-rule="evenodd" clip-rule="evenodd" d="M14.5336 40.2011C12.5227 39.8964 10.4773 39.8964 8.46637 40.2011L6.88764 40.4403C6.521 40.4958 6.25 40.811 6.25 41.1818V54.8182C6.25 55.0367 6.34531 55.2444 6.511 55.3868C6.6767 55.5293 6.89629 55.5924 7.11236 55.5597L8.69108 55.3205C10.5531 55.0384 12.4469 55.0384 14.3089 55.3205L15.8876 55.5597L17.4665 55.7989C19.4774 56.1036 21.5226 56.1036 23.5335 55.7989L25.1124 55.5597C25.479 55.5041 25.75 55.189 25.75 54.8182V41.1818C25.75 40.9633 25.6547 40.7556 25.489 40.6131C25.3233 40.4707 25.1037 40.4075 24.8876 40.4403L23.3088 40.6795C21.4469 40.9616 19.5531 40.9616 17.6912 40.6795L14.5336 40.2011ZM8.69109 41.6841C10.5531 41.402 12.4469 41.402 14.3089 41.6841L15.8876 41.9233L17.4664 42.1625C19.4773 42.4672 21.5227 42.4672 23.5336 42.1625L24.25 42.054V54.1732L23.3088 54.3158C21.4469 54.5979 19.5531 54.5979 17.6912 54.3158L14.5336 53.8374C12.5227 53.5327 10.4773 53.5327 8.46637 53.8374L7.75 53.946V41.8267L8.69109 41.6841Z" fill="#181624"/>
<rect x="0.5" y="0.5" width="31" height="63" rx="4.5" stroke="#7B61FF" stroke-dasharray="10 5"/>
</svg>
