<svg width="24" height="24" viewBox="0 0 24 24" fill="none" xmlns="http://www.w3.org/2000/svg">
<path fill-rule="evenodd" clip-rule="evenodd" d="M20.2115 4.73719C20.3013 4.46769 20.2312 4.17056 20.0303 3.96969C19.8295 3.76882 19.5323 3.69867 19.2628 3.78851L5.76283 8.28852C5.45657 8.3906 5.25 8.67721 5.25 9.00003C5.25 9.32285 5.45657 9.60946 5.76283 9.71154L11.8013 11.7244C12.0253 11.799 12.201 11.9748 12.2757 12.1987L14.2885 18.2372C14.3906 18.5435 14.6772 18.75 15 18.75C15.3228 18.75 15.6094 18.5435 15.7115 18.2372L20.2115 4.73719ZM8.3717 9.00003L18.3141 5.68588L15 15.6283L13.6987 11.7244C13.4747 11.0525 12.9475 10.5253 12.2757 10.3013L8.3717 9.00003Z" fill="#181624"/>
<path d="M10.2803 14.7804C10.5732 14.4875 10.5732 14.0126 10.2803 13.7197C9.98744 13.4268 9.51256 13.4268 9.21967 13.7197L6.21967 16.7197C5.92678 17.0126 5.92678 17.4875 6.21967 17.7804C6.51256 18.0733 6.98744 18.0733 7.28033 17.7804L10.2803 14.7804Z" fill="#181624"/>
<path d="M11.0303 17.4697C11.3232 17.7626 11.3232 18.2375 11.0303 18.5304L8.78033 20.7804C8.48744 21.0733 8.01256 21.0733 7.71967 20.7804C7.42678 20.4875 7.42678 20.0126 7.71967 19.7197L9.96967 17.4697C10.2626 17.1768 10.7374 17.1768 11.0303 17.4697Z" fill="#181624"/>
<path d="M6.53033 14.0304C6.82322 13.7375 6.82322 13.2626 6.53033 12.9697C6.23744 12.6768 5.76256 12.6768 5.46967 12.9697L3.21967 15.2197C2.92678 15.5126 2.92678 15.9875 3.21967 16.2804C3.51256 16.5733 3.98744 16.5733 4.28033 16.2804L6.53033 14.0304Z" fill="#181624"/>
</svg>
