<svg width="32" height="64" viewBox="0 0 32 64" fill="none" xmlns="http://www.w3.org/2000/svg">
<path d="M17.82 26H14.18C13.7102 26 13.3036 25.673 13.203 25.214L12.796 23.33C12.2531 23.0921 11.7383 22.7946 11.261 22.443L9.42404 23.028C8.97604 23.1709 8.48903 22.9823 8.25404 22.575L6.43004 19.424C6.19763 19.0165 6.2777 18.5025 6.62304 18.185L8.04804 16.885C7.98324 16.2961 7.98324 15.7019 8.04804 15.113L6.62304 13.816C6.27719 13.4984 6.19709 12.9837 6.43004 12.576L8.25004 9.423C8.48503 9.0157 8.97204 8.82714 9.42004 8.97L11.257 9.555C11.5011 9.37416 11.7552 9.20722 12.018 9.055C12.2704 8.91269 12.5301 8.78385 12.796 8.669L13.204 6.787C13.3041 6.32797 13.7102 6.00049 14.18 6H17.82C18.2899 6.00049 18.696 6.32797 18.796 6.787L19.208 8.67C19.4888 8.79352 19.7623 8.93308 20.027 9.088C20.274 9.23081 20.5127 9.38739 20.742 9.557L22.58 8.972C23.0277 8.82967 23.5142 9.01816 23.749 9.425L25.569 12.578C25.8015 12.9855 25.7214 13.4995 25.376 13.817L23.951 15.117C24.0158 15.7059 24.0158 16.3001 23.951 16.889L25.376 18.189C25.7214 18.5065 25.8015 19.0205 25.569 19.428L23.749 22.581C23.5142 22.9878 23.0277 23.1763 22.58 23.034L20.742 22.449C20.5095 22.6203 20.2678 22.7789 20.018 22.924C19.7559 23.0759 19.4854 23.2131 19.208 23.335L18.796 25.214C18.6956 25.6726 18.2895 25.9996 17.82 26ZM11.62 20.229L12.44 20.829C12.6249 20.9652 12.8176 21.0904 13.017 21.204C13.2047 21.3127 13.398 21.4115 13.596 21.5L14.529 21.909L14.986 24H17.016L17.473 21.908L18.406 21.499C18.8133 21.3194 19.1999 21.0961 19.559 20.833L20.38 20.233L22.421 20.883L23.436 19.125L21.853 17.682L21.965 16.67C22.0142 16.2274 22.0142 15.7806 21.965 15.338L21.853 14.326L23.437 12.88L22.421 11.121L20.38 11.771L19.559 11.171C19.1998 10.9067 18.8133 10.6818 18.406 10.5L17.473 10.091L17.016 8H14.986L14.527 10.092L13.596 10.5C13.3978 10.587 13.2046 10.6849 13.017 10.793C12.8188 10.9063 12.6271 11.0309 12.443 11.166L11.622 11.766L9.58204 11.116L8.56504 12.88L10.148 14.321L10.036 15.334C9.98684 15.7766 9.98684 16.2234 10.036 16.666L10.148 17.678L8.56504 19.121L9.58004 20.879L11.62 20.229ZM15.996 20C13.7869 20 11.996 18.2091 11.996 16C11.996 13.7909 13.7869 12 15.996 12C18.2052 12 19.996 13.7909 19.996 16C19.9933 18.208 18.204 19.9972 15.996 20ZM15.996 14C14.9034 14.0011 14.0139 14.8788 13.9983 15.9713C13.9826 17.0638 14.8466 17.9667 15.9387 17.9991C17.0309 18.0315 17.9469 17.1815 17.996 16.09V16.49V16C17.996 14.8954 17.1006 14 15.996 14Z" fill="#181624"/>
<path d="M17.82 58H14.18C13.7102 58 13.3036 57.673 13.203 57.214L12.796 55.33C12.2531 55.0921 11.7383 54.7946 11.261 54.443L9.42404 55.028C8.97604 55.1709 8.48903 54.9823 8.25404 54.575L6.43004 51.424C6.19763 51.0165 6.2777 50.5025 6.62304 50.185L8.04804 48.885C7.98324 48.2961 7.98324 47.7019 8.04804 47.113L6.62304 45.816C6.27719 45.4984 6.19709 44.9837 6.43004 44.576L8.25004 41.423C8.48503 41.0157 8.97204 40.8271 9.42004 40.97L11.257 41.555C11.5011 41.3742 11.7552 41.2072 12.018 41.055C12.2704 40.9127 12.5301 40.7838 12.796 40.669L13.204 38.787C13.3041 38.328 13.7102 38.0005 14.18 38H17.82C18.2899 38.0005 18.696 38.328 18.796 38.787L19.208 40.67C19.4888 40.7935 19.7623 40.9331 20.027 41.088C20.2743 41.2308 20.5134 41.3874 20.743 41.557L22.581 40.972C23.0287 40.8297 23.5152 41.0182 23.75 41.425L25.57 44.578C25.8025 44.9855 25.7224 45.4995 25.377 45.817L23.952 47.117C24.0168 47.7059 24.0168 48.3001 23.952 48.889L25.377 50.189C25.7224 50.5065 25.8025 51.0205 25.57 51.428L23.75 54.581C23.5152 54.9878 23.0287 55.1763 22.581 55.034L20.743 54.449C20.5105 54.6203 20.2688 54.7789 20.019 54.924C19.7569 55.0759 19.4864 55.2131 19.209 55.335L18.796 57.214C18.6956 57.6726 18.2895 57.9996 17.82 58ZM15.996 44C13.7869 44 11.996 45.7909 11.996 48C11.996 50.2091 13.7869 52 15.996 52C18.2052 52 19.996 50.2091 19.996 48C19.996 45.7909 18.2052 44 15.996 44Z" fill="#181624"/>
<rect x="0.5" y="0.5" width="31" height="63" rx="4.5" stroke="#7B61FF" stroke-dasharray="10 5"/>
</svg>
