<svg width="32" height="64" viewBox="0 0 32 64" fill="none" xmlns="http://www.w3.org/2000/svg">
<path d="M21.5 26C20.4179 26.0125 19.3923 25.518 18.7282 24.6637C18.0641 23.8093 17.8379 22.6935 18.117 21.648L11.857 18.07C10.7753 19.061 9.18965 19.2707 7.88746 18.5951C6.58526 17.9194 5.84384 16.5022 6.03134 15.0472C6.21883 13.5921 7.2953 12.4092 8.72625 12.0857C10.1572 11.7622 11.6378 12.3671 12.433 13.6L18.116 10.351C18.0424 10.0731 18.0035 9.78732 18 9.49996C17.9856 7.82667 19.1478 6.3731 20.7832 6.01878C22.4186 5.66446 24.0781 6.5067 24.7576 8.03588C25.4371 9.56505 24.95 11.3612 23.5909 12.3375C22.2319 13.3137 20.3742 13.202 19.142 12.07L12.991 15.585C12.9849 15.8443 12.9486 16.102 12.883 16.353L19.142 19.93C20.2942 18.8725 22.0087 18.7093 23.3399 19.5303C24.671 20.3513 25.2946 21.9567 24.8668 23.461C24.439 24.9653 23.0639 26.0023 21.5 26ZM21.5 21C20.6715 21 20 21.6715 20 22.5C20 23.3284 20.6715 24 21.5 24C22.3284 24 23 23.3284 23 22.5C23 21.6715 22.3284 21 21.5 21ZM9.49997 14C8.67154 14 7.99997 14.6715 7.99997 15.5C7.99997 16.3284 8.67154 17 9.49997 17C10.3284 17 11 16.3284 11 15.5C11 14.6715 10.3284 14 9.49997 14ZM21.5 7.99996C20.6715 7.99996 20 8.67153 20 9.49996C20 10.3284 20.6715 11 21.5 11C22.3284 11 23 10.3284 23 9.49996C23 8.67153 22.3284 7.99996 21.5 7.99996Z" fill="#181624"/>
<path d="M9.50002 51C10.3747 50.9974 11.2162 50.6653 11.857 50.07L18.117 53.647C17.6834 55.3413 18.5595 57.0969 20.174 57.7692C21.7885 58.4415 23.6517 57.8265 24.5488 56.3253C25.4458 54.824 25.1047 52.8918 23.7478 51.7885C22.3908 50.6852 20.4297 50.7455 19.143 51.93L12.883 48.353C12.9486 48.1021 12.9849 47.8443 12.991 47.585L19.142 44.07C20.3629 45.1799 22.1944 45.2828 23.532 44.3167C24.8696 43.3505 25.3474 41.5794 24.6774 40.0716C24.0074 38.5637 22.3727 37.7314 20.7591 38.0766C19.1456 38.4217 17.9945 39.85 18 41.5C18.0036 41.7881 18.0429 42.0746 18.117 42.353L12.433 45.6C11.5225 44.1914 9.74074 43.6268 8.18513 44.2538C6.62951 44.8809 5.73741 46.5233 6.05828 48.1696C6.37915 49.8158 7.82278 51.0031 9.50002 51Z" fill="#181624"/>
<rect x="0.5" y="0.5" width="31" height="63" rx="4.5" stroke="#7B61FF" stroke-dasharray="10 5"/>
</svg>
