<svg width="32" height="64" viewBox="0 0 32 64" fill="none" xmlns="http://www.w3.org/2000/svg">
<path d="M16.897 25.968C16.366 25.9696 15.8564 25.7586 15.482 25.382L7.64799 17.547C7.23458 17.1348 7.0226 16.5621 7.06799 15.98L7.56799 9.41401C7.63929 8.4264 8.42619 7.64163 9.41399 7.57301L15.98 7.07301C16.031 7.06201 16.083 7.06201 16.134 7.06201C16.6638 7.06337 17.1717 7.27399 17.547 7.64801L25.382 15.482C25.7572 15.8571 25.9681 16.3659 25.9681 16.8965C25.9681 17.4271 25.7572 17.9359 25.382 18.311L18.311 25.382C17.9368 25.7583 17.4277 25.9693 16.897 25.968ZM16.133 9.06201L9.56199 9.56201L9.06199 16.133L16.897 23.968L23.967 16.898L16.133 9.06201ZM12.654 14.654C11.6998 14.6542 10.8784 13.9804 10.6921 13.0446C10.5057 12.1088 11.0064 11.1717 11.8879 10.8064C12.7693 10.4411 13.7861 10.7493 14.3163 11.5426C14.8466 12.3359 14.7426 13.3932 14.068 14.068C13.6938 14.4443 13.1847 14.6553 12.654 14.654Z" fill="#181624"/>
<path d="M16.897 57.968C16.3663 57.9696 15.8571 57.7585 15.483 57.382L7.64601 49.547C7.23248 49.1349 7.02049 48.5621 7.06601 47.98L7.56601 41.414C7.63743 40.4257 8.42543 39.6407 9.41401 39.573L15.98 39.073C16.032 39.062 16.083 39.062 16.135 39.062C16.6647 39.0614 17.1726 39.2723 17.546 39.648L25.383 47.482C25.7583 47.8571 25.9691 48.3659 25.9691 48.8965C25.9691 49.4271 25.7583 49.9359 25.383 50.311L18.311 57.382C17.9368 57.7583 17.4277 57.9693 16.897 57.968ZM12.654 42.654C11.7488 42.6543 10.9567 43.2625 10.7226 44.1368C10.4885 45.0112 10.8709 45.9338 11.6549 46.3863C12.4389 46.8387 13.4291 46.7082 14.069 46.068L14.076 46.062L14.083 46.055L14.075 46.062C14.6434 45.4886 14.8113 44.6296 14.5006 43.8843C14.1898 43.1391 13.4614 42.6538 12.654 42.654Z" fill="#181624"/>
<rect x="0.5" y="0.5" width="31" height="63" rx="4.5" stroke="#7B61FF" stroke-dasharray="10 5"/>
</svg>
