<svg width="32" height="64" viewBox="0 0 32 64" fill="none" xmlns="http://www.w3.org/2000/svg">
<path d="M21 26H11C9.89543 26 9 25.1046 9 24V11H7V9H11V8C11 6.89543 11.8954 6 13 6H19C20.1046 6 21 6.89543 21 8V9H25V11H23V24C23 25.1046 22.1046 26 21 26ZM11 11V24H21V11H11ZM13 8V9H19V8H13Z" fill="#181624"/>
<path d="M21 58H11C9.89543 58 9 57.1046 9 56V43H7V41H11V40C11 38.8954 11.8954 38 13 38H19C20.1046 38 21 38.8954 21 40V41H25V43H23V56C23 57.1046 22.1046 58 21 58ZM11 43V56H21V43H11ZM13 40V41H19V40H13ZM19 54H17V45H19V54ZM15 54H13V45H15V54Z" fill="#181624"/>
<rect x="0.5" y="0.5" width="31" height="63" rx="4.5" stroke="#7B61FF" stroke-dasharray="10 5"/>
</svg>
