<svg width="16" height="16" viewBox="0 0 17 16" xmlns="http://www.w3.org/2000/svg">
<path d="M4.25 7C3.97386 7 3.75 7.22386 3.75 7.5V9C3.75 9.27614 3.97386 9.5 4.25 9.5C4.52614 9.5 4.75 9.27614 4.75 9V8H5.75C6.02614 8 6.25 7.77614 6.25 7.5C6.25 7.22386 6.02614 7 5.75 7H4.25Z" />
<path d="M13.75 12.5C13.75 12.7761 13.5261 13 13.25 13H11.75C11.4739 13 11.25 12.7761 11.25 12.5C11.25 12.2239 11.4739 12 11.75 12H12.75V11C12.75 10.7239 12.9739 10.5 13.25 10.5C13.5261 10.5 13.75 10.7239 13.75 11V12.5Z" />
<path d="M9.25 7.5C9.25 7.22386 9.02614 7 8.75 7C8.47386 7 8.25 7.22386 8.25 7.5V7.58535C7.6674 7.79127 7.25 8.34689 7.25 9C7.25 9.82843 7.92157 10.5 8.75 10.5C9.02614 10.5 9.25 10.7239 9.25 11C9.25 11.2761 9.02614 11.5 8.75 11.5C8.47386 11.5 8.25 11.2761 8.25 11C8.25 10.7239 8.02614 10.5 7.75 10.5C7.47386 10.5 7.25 10.7239 7.25 11C7.25 11.6531 7.6674 12.2087 8.25 12.4146V12.5C8.25 12.7761 8.47386 13 8.75 13C9.02614 13 9.25 12.7761 9.25 12.5V12.4146C9.8326 12.2087 10.25 11.6531 10.25 11C10.25 10.1716 9.57843 9.5 8.75 9.5C8.47386 9.5 8.25 9.27614 8.25 9C8.25 8.72386 8.47386 8.5 8.75 8.5C9.02614 8.5 9.25 8.72386 9.25 9C9.25 9.27614 9.47386 9.5 9.75 9.5C10.0261 9.5 10.25 9.27614 10.25 9C10.25 8.34689 9.8326 7.79127 9.25 7.58535V7.5Z" />
<path fill-rule="evenodd" clip-rule="evenodd" d="M11.9702 1.55112C12.1066 1.61802 12.2051 1.74327 12.2381 1.89153L12.6213 3.61584L13.1519 3.50971C13.4137 3.45737 13.6703 3.6198 13.7351 3.87873L14.1404 5.5H14.75C15.0261 5.5 15.25 5.72386 15.25 6V14C15.25 14.2761 15.0261 14.5 14.75 14.5H2.75C2.47386 14.5 2.25 14.2761 2.25 14V6C2.25 5.72386 2.47386 5.5 2.75 5.5H3.13822L11.5371 1.54759C11.6745 1.48292 11.8339 1.48422 11.9702 1.55112ZM11.3975 2.71849L11.6405 3.812L7.17662 4.70477L11.3975 2.71849ZM13.1096 5.5L12.8806 4.58379L8.29951 5.5H13.1096ZM3.25 13.5V6.5H14.25V13.5H3.25Z" />
</svg>
