<svg width="86" height="19" viewBox="0 0 86 19" fill="none" xmlns="http://www.w3.org/2000/svg">
  <g clip-path="url(#clip0_835_17863)">
  <path fill-rule="evenodd" clip-rule="evenodd" d="M2.11426 2.55664H12.6112V16.4424H2.11426V2.55664Z" fill="black"/>
  <path d="M0.0146484 2.04297H2.11403V16.9573H0.0146484V2.04297Z" fill="#04FF8E"/>
  <path d="M12.6113 6.15723H14.7107V16.9572H12.6113V6.15723Z" fill="#8E2EFF"/>
  <path d="M0.0146484 16.4424H14.7103V18.4995H0.0146484V16.4424Z" fill="#00C5FF"/>
  <path d="M0.0146484 0.5H8.41218V2.55714H0.0146484V0.5Z" fill="#FFF152"/>
  <path d="M12.611 4.61428V2.55714H10.5116V0.5H8.41223V6.67143H14.7104V4.61428" fill="#FF5B5B"/>
  <path d="M12.6113 8.72902V6.67188H14.7107" fill="#551C99"/>
  <path fill-rule="evenodd" clip-rule="evenodd" d="M8.41188 0.5V2.55714H6.3125" fill="#999131"/>
  <path d="M31.0332 6.67122C29.9835 5.69408 28.7239 5.43694 27.7792 5.43694C25.4699 5.43694 23.9478 6.77408 23.9478 9.55122C23.9478 11.3512 24.8925 13.5627 27.7792 13.5627C28.514 13.5627 29.7211 13.4084 30.5084 12.8427V11.0427H26.887V7.95694H33.8674V14.1798C32.9752 15.9798 30.5084 16.9055 27.7267 16.9055C22.1109 16.9055 19.959 13.2027 19.959 9.55122C19.959 5.8998 22.4258 2.14551 27.7792 2.14551C29.7736 2.14551 31.5056 2.55694 33.395 4.40837L31.0332 6.67122ZM35.8093 16.5455V2.55694H39.7982V16.5455H35.8093ZM46.3587 12.7398V16.4941H42.3174V2.55694H49.2454C53.0768 2.55694 54.9662 4.92265 54.9662 7.64837C54.9662 10.5284 53.0768 12.7398 49.2454 12.7398H46.3587ZM46.3587 9.39694H49.2454C50.3476 9.39694 50.9249 8.57408 50.9249 7.6998C50.9249 6.77408 50.3476 5.95122 49.2454 5.95122H46.3587V9.39694ZM65.6206 16.5455V11.2484H60.4771V16.5455H56.4358V2.55694H60.4771V7.85408H65.6206V2.55694H69.6094V16.5455H65.6206ZM78.3218 7.3398L81.4184 2.55694H85.9846V2.71122L80.3163 10.9398V16.4941H76.275V10.9398L70.869 2.71122V2.55694H75.4352L78.3218 7.3398Z" fill="black"/>
  </g>
  <defs>
  <clipPath id="clip0_835_17863">
  <rect width="86" height="18" fill="white" transform="translate(0 0.5)"/>
  </clipPath>
  </defs>
  </svg>
  