<svg width="105" height="25" viewBox="0 0 105 25" fill="none" xmlns="http://www.w3.org/2000/svg">
  <g clip-path="url(#clip0_835_17555)">
  <path fill-rule="evenodd" clip-rule="evenodd" d="M5.625 1.5H12.375V6.5625H5.625V1.5ZM0 9.375H5.64131V14.4825H12.4061V9.375H18V19.5H0V9.375Z" fill="black"/>
  </g>
  <path d="M27.7021 6.634V13.978C27.7021 14.7827 27.9118 15.4003 28.3311 15.831C28.7504 16.2503 29.3398 16.46 30.0991 16.46C30.8698 16.46 31.4648 16.2503 31.8841 15.831C32.3034 15.4003 32.5131 14.7827 32.5131 13.978V6.634H34.9101V13.961C34.9101 14.9697 34.6891 15.8253 34.2471 16.528C33.8164 17.2193 33.2328 17.7407 32.4961 18.092C31.7708 18.4433 30.9604 18.619 30.0651 18.619C29.1811 18.619 28.3764 18.4433 27.6511 18.092C26.9371 17.7407 26.3704 17.2193 25.9511 16.528C25.5318 15.8253 25.3221 14.9697 25.3221 13.961V6.634H27.7021ZM42.4286 8.946C43.5506 8.946 44.4573 9.303 45.1486 10.017C45.84 10.7197 46.1856 11.7057 46.1856 12.975V18.5H43.8056V13.298C43.8056 12.55 43.6186 11.9777 43.2446 11.581C42.8706 11.173 42.3606 10.969 41.7146 10.969C41.0573 10.969 40.536 11.173 40.1506 11.581C39.7766 11.9777 39.5896 12.55 39.5896 13.298V18.5H37.2096V9.082H39.5896V10.255C39.907 9.847 40.3093 9.52967 40.7966 9.303C41.2953 9.065 41.8393 8.946 42.4286 8.946ZM52.0529 18.653C51.2822 18.653 50.5909 18.517 49.9789 18.245C49.3669 17.9617 48.8795 17.582 48.5169 17.106C48.1655 16.63 47.9729 16.103 47.9389 15.525H50.3359C50.3812 15.8877 50.5569 16.188 50.8629 16.426C51.1802 16.664 51.5712 16.783 52.0359 16.783C52.4892 16.783 52.8405 16.6923 53.0899 16.511C53.3505 16.3297 53.4809 16.0973 53.4809 15.814C53.4809 15.508 53.3222 15.2813 53.0049 15.134C52.6989 14.9753 52.2059 14.8053 51.5259 14.624C50.8232 14.454 50.2452 14.2783 49.7919 14.097C49.3499 13.9157 48.9645 13.638 48.6359 13.264C48.3185 12.89 48.1599 12.3857 48.1599 11.751C48.1599 11.2297 48.3072 10.7537 48.6019 10.323C48.9079 9.89233 49.3385 9.55233 49.8939 9.303C50.4605 9.05367 51.1235 8.929 51.8829 8.929C53.0049 8.929 53.9002 9.21233 54.5689 9.779C55.2375 10.3343 55.6059 11.088 55.6739 12.04H53.3959C53.3619 11.666 53.2032 11.3713 52.9199 11.156C52.6479 10.9293 52.2795 10.816 51.8149 10.816C51.3842 10.816 51.0499 10.8953 50.8119 11.054C50.5852 11.2127 50.4719 11.4337 50.4719 11.717C50.4719 12.0343 50.6305 12.278 50.9479 12.448C51.2652 12.6067 51.7582 12.771 52.4269 12.941C53.1069 13.111 53.6679 13.2867 54.1099 13.468C54.5519 13.6493 54.9315 13.9327 55.2489 14.318C55.5775 14.692 55.7475 15.1907 55.7589 15.814C55.7589 16.358 55.6059 16.8453 55.2999 17.276C55.0052 17.7067 54.5745 18.0467 54.0079 18.296C53.4525 18.534 52.8009 18.653 52.0529 18.653ZM60.0926 10.442C60.3986 10.0113 60.8179 9.65433 61.3506 9.371C61.8946 9.07633 62.5122 8.929 63.2036 8.929C64.0082 8.929 64.7336 9.12733 65.3796 9.524C66.0369 9.92067 66.5526 10.4873 66.9266 11.224C67.3119 11.9493 67.5046 12.7937 67.5046 13.757C67.5046 14.7203 67.3119 15.576 66.9266 16.324C66.5526 17.0607 66.0369 17.633 65.3796 18.041C64.7336 18.449 64.0082 18.653 63.2036 18.653C62.5122 18.653 61.9002 18.5113 61.3676 18.228C60.8462 17.9447 60.4212 17.5877 60.0926 17.157V22.988H57.7126V9.082H60.0926V10.442ZM65.0736 13.757C65.0736 13.1903 64.9546 12.703 64.7166 12.295C64.4899 11.8757 64.1839 11.5583 63.7986 11.343C63.4246 11.1277 63.0166 11.02 62.5746 11.02C62.1439 11.02 61.7359 11.1333 61.3506 11.36C60.9766 11.5753 60.6706 11.8927 60.4326 12.312C60.2059 12.7313 60.0926 13.2243 60.0926 13.791C60.0926 14.3577 60.2059 14.8507 60.4326 15.27C60.6706 15.6893 60.9766 16.0123 61.3506 16.239C61.7359 16.4543 62.1439 16.562 62.5746 16.562C63.0166 16.562 63.4246 16.4487 63.7986 16.222C64.1839 15.9953 64.4899 15.6723 64.7166 15.253C64.9546 14.8337 65.0736 14.335 65.0736 13.757ZM71.614 5.92V18.5H69.234V5.92H71.614ZM73.3535 13.757C73.3535 12.805 73.5405 11.9607 73.9145 11.224C74.2998 10.4873 74.8155 9.92067 75.4615 9.524C76.1188 9.12733 76.8498 8.929 77.6545 8.929C78.3571 8.929 78.9691 9.07067 79.4905 9.354C80.0231 9.63733 80.4481 9.99433 80.7655 10.425V9.082H83.1625V18.5H80.7655V17.123C80.4595 17.565 80.0345 17.9333 79.4905 18.228C78.9578 18.5113 78.3401 18.653 77.6375 18.653C76.8441 18.653 76.1188 18.449 75.4615 18.041C74.8155 17.633 74.2998 17.0607 73.9145 16.324C73.5405 15.576 73.3535 14.7203 73.3535 13.757ZM80.7655 13.791C80.7655 13.213 80.6521 12.72 80.4255 12.312C80.1988 11.8927 79.8928 11.5753 79.5075 11.36C79.1221 11.1333 78.7085 11.02 78.2665 11.02C77.8245 11.02 77.4165 11.1277 77.0425 11.343C76.6685 11.5583 76.3625 11.8757 76.1245 12.295C75.8978 12.703 75.7845 13.1903 75.7845 13.757C75.7845 14.3237 75.8978 14.8223 76.1245 15.253C76.3625 15.6723 76.6685 15.9953 77.0425 16.222C77.4278 16.4487 77.8358 16.562 78.2665 16.562C78.7085 16.562 79.1221 16.4543 79.5075 16.239C79.8928 16.0123 80.1988 15.695 80.4255 15.287C80.6521 14.8677 80.7655 14.369 80.7655 13.791ZM89.091 18.653C88.3203 18.653 87.629 18.517 87.017 18.245C86.405 17.9617 85.9176 17.582 85.555 17.106C85.2036 16.63 85.011 16.103 84.977 15.525H87.374C87.4193 15.8877 87.595 16.188 87.901 16.426C88.2183 16.664 88.6093 16.783 89.074 16.783C89.5273 16.783 89.8786 16.6923 90.128 16.511C90.3886 16.3297 90.519 16.0973 90.519 15.814C90.519 15.508 90.3603 15.2813 90.043 15.134C89.737 14.9753 89.244 14.8053 88.564 14.624C87.8613 14.454 87.2833 14.2783 86.83 14.097C86.388 13.9157 86.0026 13.638 85.674 13.264C85.3566 12.89 85.198 12.3857 85.198 11.751C85.198 11.2297 85.3453 10.7537 85.64 10.323C85.946 9.89233 86.3766 9.55233 86.932 9.303C87.4986 9.05367 88.1616 8.929 88.921 8.929C90.043 8.929 90.9383 9.21233 91.607 9.779C92.2756 10.3343 92.644 11.088 92.712 12.04H90.434C90.4 11.666 90.2413 11.3713 89.958 11.156C89.686 10.9293 89.3176 10.816 88.853 10.816C88.4223 10.816 88.088 10.8953 87.85 11.054C87.6233 11.2127 87.51 11.4337 87.51 11.717C87.51 12.0343 87.6686 12.278 87.986 12.448C88.3033 12.6067 88.7963 12.771 89.465 12.941C90.145 13.111 90.706 13.2867 91.148 13.468C91.59 13.6493 91.9696 13.9327 92.287 14.318C92.6156 14.692 92.7856 15.1907 92.797 15.814C92.797 16.358 92.644 16.8453 92.338 17.276C92.0433 17.7067 91.6126 18.0467 91.046 18.296C90.4906 18.534 89.839 18.653 89.091 18.653ZM100.055 8.946C100.769 8.946 101.403 9.10467 101.959 9.422C102.514 9.728 102.945 10.187 103.251 10.799C103.568 11.3997 103.727 12.125 103.727 12.975V18.5H101.347V13.298C101.347 12.55 101.16 11.9777 100.786 11.581C100.412 11.173 99.9016 10.969 99.2556 10.969C98.5983 10.969 98.077 11.173 97.6916 11.581C97.3176 11.9777 97.1306 12.55 97.1306 13.298V18.5H94.7506V5.92H97.1306V10.255C97.4366 9.847 97.8446 9.52967 98.3546 9.303C98.8646 9.065 99.4313 8.946 100.055 8.946Z" fill="black"/>
  <defs>
  <clipPath id="clip0_835_17555">
  <rect width="18" height="18" fill="white" transform="translate(0 1.5)"/>
  </clipPath>
  </defs>
  </svg>
  