<svg width="124" height="124" viewBox="0 0 124 124" fill="none" xmlns="http://www.w3.org/2000/svg">
  <path opacity="0.7" fill-rule="evenodd" clip-rule="evenodd" d="M12.0224 29.1299C10.333 32.4455 10.333 36.7859 10.333 45.4667V78.5334C10.333 87.2142 10.333 91.5546 12.0224 94.8703C13.1869 97.1558 14.895 99.1064 16.9831 100.559C16.5821 99.982 16.219 99.3764 15.8975 98.7453C14.2081 95.4296 14.2081 91.0892 14.2081 82.4084V49.3417C14.2081 40.6609 14.2081 36.3205 15.8975 33.0049C17.3835 30.0884 19.7547 27.7172 22.6712 26.2311C25.9869 24.5417 30.3273 24.5417 39.0081 24.5417H92.7414C101.422 24.5417 105.763 24.5417 109.078 26.2311C109.709 26.5527 110.315 26.9156 110.891 27.3166C109.439 25.2286 107.489 23.5206 105.203 22.3561C101.888 20.6667 97.5471 20.6667 88.8663 20.6667H35.133C26.4522 20.6667 22.1118 20.6667 18.7962 22.3561C15.8796 23.8422 13.5084 26.2134 12.0224 29.1299Z" fill="#6E41E2" />
  <path opacity="0.7" fill-rule="evenodd" clip-rule="evenodd" d="M31.9056 43.5771C33.5198 41.224 36.7359 40.6251 39.0889 42.2393L59.0768 55.951C60.838 57.1591 63.161 57.1591 64.9222 55.951L84.9101 42.2393C87.2631 40.6251 90.4792 41.224 92.0934 43.5771C93.7076 45.9301 93.1086 49.1462 90.7556 50.7603L70.7677 64.472C65.4841 68.0966 58.5149 68.0966 53.2313 64.472L33.2435 50.7603C30.8904 49.1462 30.2915 45.9301 31.9056 43.5771Z" fill="#6E41E2" />
  <g filter="url(#filter0_bi_666_23460)">
    <path d="M10.3335 45.4666C10.3335 36.7858 10.3335 32.4454 12.0229 29.1298C13.5089 26.2133 15.8801 23.8421 18.7966 22.356C22.1123 20.6666 26.4527 20.6666 35.1335 20.6666H88.8668C97.5476 20.6666 101.888 20.6666 105.204 22.356C108.12 23.8421 110.491 26.2133 111.977 29.1298C113.667 32.4454 113.667 36.7858 113.667 45.4666V78.5333C113.667 87.2141 113.667 91.5545 111.977 94.8701C110.491 97.7867 108.12 100.158 105.204 101.644C101.888 103.333 97.5476 103.333 88.8668 103.333H35.1335C26.4527 103.333 22.1123 103.333 18.7966 101.644C15.8801 100.158 13.5089 97.7867 12.0229 94.8701C10.3335 91.5545 10.3335 87.2141 10.3335 78.5333V45.4666Z" fill="#770DFF" fill-opacity="0.07" />
    <path d="M11.8335 45.4666C11.8335 41.1015 11.8347 37.9178 12.0397 35.4084C12.2433 32.9165 12.6404 31.2219 13.3594 29.8108C14.7016 27.1765 16.8434 25.0348 19.4776 23.6925C20.8887 22.9735 22.5834 22.5764 25.0753 22.3728C27.5847 22.1678 30.7683 22.1666 35.1335 22.1666H88.8668C93.232 22.1666 96.4156 22.1678 98.9251 22.3728C101.417 22.5764 103.112 22.9735 104.523 23.6925C107.157 25.0348 109.299 27.1765 110.641 29.8108C111.36 31.2219 111.757 32.9165 111.961 35.4084C112.166 37.9178 112.167 41.1015 112.167 45.4666V78.5333C112.167 82.8984 112.166 86.0821 111.961 88.5915C111.757 91.0834 111.36 92.778 110.641 94.1892C109.299 96.8234 107.157 98.9651 104.523 100.307C103.112 101.026 101.417 101.423 98.9251 101.627C96.4156 101.832 93.232 101.833 88.8668 101.833H35.1335C30.7683 101.833 27.5847 101.832 25.0753 101.627C22.5834 101.423 20.8887 101.026 19.4776 100.307C16.8434 98.9651 14.7016 96.8234 13.3594 94.1892C12.6404 92.778 12.2433 91.0834 12.0397 88.5915C11.8347 86.0821 11.8335 82.8984 11.8335 78.5333V45.4666Z" stroke="url(#paint0_linear_666_23460)" stroke-width="3" />
  </g>
  <path fill-rule="evenodd" clip-rule="evenodd" d="M31.9061 43.5773C33.5203 41.2243 36.7364 40.6253 39.0894 42.2395L59.0773 55.9512C60.8385 57.1594 63.1615 57.1594 64.9227 55.9512L84.9106 42.2395C87.2636 40.6253 90.4797 41.2243 92.0939 43.5773C93.708 45.9303 93.1091 49.1464 90.7561 50.7606L70.7682 64.4723C65.4846 68.0968 58.5154 68.0968 53.2318 64.4723L33.2439 50.7606C30.8909 49.1464 30.292 45.9303 31.9061 43.5773Z" fill="#6E41E2" />
  <defs>
    <filter id="filter0_bi_666_23460" x="-34.6665" y="-24.3334" width="193.333" height="172.667" filterUnits="userSpaceOnUse" color-interpolation-filters="sRGB">
      <feFlood flood-opacity="0" result="BackgroundImageFix" />
      <feGaussianBlur in="BackgroundImage" stdDeviation="22.5" />
      <feComposite in2="SourceAlpha" operator="in" result="effect1_backgroundBlur_666_23460" />
      <feBlend mode="normal" in="SourceGraphic" in2="effect1_backgroundBlur_666_23460" result="shape" />
      <feColorMatrix in="SourceAlpha" type="matrix" values="0 0 0 0 0 0 0 0 0 0 0 0 0 0 0 0 0 0 127 0" result="hardAlpha" />
      <feOffset />
      <feGaussianBlur stdDeviation="22.5" />
      <feComposite in2="hardAlpha" operator="arithmetic" k2="-1" k3="1" />
      <feColorMatrix type="matrix" values="0 0 0 0 0.0941176 0 0 0 0 0.521569 0 0 0 0 0.94902 0 0 0 0.1 0" />
      <feBlend mode="normal" in2="shape" result="effect2_innerShadow_666_23460" />
    </filter>
    <linearGradient id="paint0_linear_666_23460" x1="16.7918" y1="22" x2="66.1813" y2="126.253" gradientUnits="userSpaceOnUse">
      <stop stop-color="#770DFF" stop-opacity="0.1" />
      <stop offset="1" stop-color="#950DFF" stop-opacity="0" />
    </linearGradient>
  </defs>
</svg>
  