<svg width="124" height="124" viewBox="0 0 124 124" fill="none" xmlns="http://www.w3.org/2000/svg">
  <path opacity="0.7" fill-rule="evenodd" clip-rule="evenodd" d="M12.0224 29.1301C10.333 32.4458 10.333 36.7862 10.333 45.467V78.5337C10.333 87.2145 10.333 91.5549 12.0224 94.8705C13.1869 97.156 14.895 99.1066 16.9831 100.559C16.5821 99.9822 16.219 99.3766 15.8975 98.7455C14.2081 95.4299 14.2081 91.0895 14.2081 82.4086V49.342C14.2081 40.6612 14.2081 36.3208 15.8975 33.0051C17.3835 30.0886 19.7547 27.7174 22.6712 26.2314C25.9869 24.542 30.3273 24.542 39.0081 24.542H92.7414C101.422 24.542 105.763 24.542 109.078 26.2314C109.709 26.5529 110.315 26.9159 110.891 27.3168C109.439 25.2288 107.489 23.5209 105.203 22.3564C101.888 20.667 97.5471 20.667 88.8663 20.667H35.133C26.4522 20.667 22.1118 20.667 18.7962 22.3564C15.8796 23.8424 13.5084 26.2136 12.0224 29.1301Z" fill="#6E41E2" />
  <path opacity="0.7" fill-rule="evenodd" clip-rule="evenodd" d="M31.9056 43.5774C33.5198 41.2244 36.7359 40.6255 39.0889 42.2396L59.0768 55.9513C60.838 57.1595 63.161 57.1595 64.9222 55.9513L84.9101 42.2396C87.2631 40.6255 90.4792 41.2244 92.0934 43.5774C93.7076 45.9305 93.1086 49.1465 90.7556 50.7607L70.7677 64.4724C65.4841 68.0969 58.5149 68.0969 53.2313 64.4724L33.2435 50.7607C30.8904 49.1465 30.2915 45.9305 31.9056 43.5774Z" fill="#6E41E2" />
  <g filter="url(#filter0_bi_666_19733)">
    <path d="M10.3335 45.467C10.3335 36.7862 10.3335 32.4458 12.0229 29.1301C13.5089 26.2136 15.8801 23.8424 18.7966 22.3564C22.1123 20.667 26.4527 20.667 35.1335 20.667H88.8668C97.5476 20.667 101.888 20.667 105.204 22.3564C108.12 23.8424 110.491 26.2136 111.977 29.1301C113.667 32.4458 113.667 36.7862 113.667 45.467V78.5336C113.667 87.2145 113.667 91.5549 111.977 94.8705C110.491 97.787 108.12 100.158 105.204 101.644C101.888 103.334 97.5476 103.334 88.8668 103.334H35.1335C26.4527 103.334 22.1123 103.334 18.7966 101.644C15.8801 100.158 13.5089 97.787 12.0229 94.8705C10.3335 91.5549 10.3335 87.2145 10.3335 78.5336V45.467Z" fill="#770DFF" fill-opacity="0.07" />
    <path d="M11.8335 45.467C11.8335 41.1018 11.8347 37.9182 12.0397 35.4088C12.2433 32.9169 12.6404 31.2222 13.3594 29.8111C14.7016 27.1769 16.8434 25.0351 19.4776 23.6929C20.8887 22.9739 22.5834 22.5768 25.0753 22.3732C27.5847 22.1682 30.7683 22.167 35.1335 22.167H88.8668C93.232 22.167 96.4156 22.1682 98.9251 22.3732C101.417 22.5768 103.112 22.9739 104.523 23.6929C107.157 25.0351 109.299 27.1769 110.641 29.8111C111.36 31.2222 111.757 32.9169 111.961 35.4088C112.166 37.9182 112.167 41.1018 112.167 45.467V78.5336C112.167 82.8988 112.166 86.0825 111.961 88.5919C111.757 91.0838 111.36 92.7784 110.641 94.1895C109.299 96.8238 107.157 98.9655 104.523 100.308C103.112 101.027 101.417 101.424 98.9251 101.627C96.4156 101.832 93.232 101.834 88.8668 101.834H35.1335C30.7683 101.834 27.5847 101.832 25.0753 101.627C22.5834 101.424 20.8887 101.027 19.4776 100.308C16.8434 98.9655 14.7016 96.8238 13.3594 94.1895C12.6404 92.7784 12.2433 91.0838 12.0397 88.5919C11.8347 86.0825 11.8335 82.8988 11.8335 78.5336V45.467Z" stroke="url(#paint0_linear_666_19733)" stroke-width="3" />
  </g>
  <path fill-rule="evenodd" clip-rule="evenodd" d="M31.9061 43.5774C33.5203 41.2244 36.7364 40.6255 39.0894 42.2396L59.0773 55.9513C60.8385 57.1595 63.1615 57.1595 64.9227 55.9513L84.9106 42.2396C87.2636 40.6255 90.4797 41.2244 92.0939 43.5774C93.708 45.9305 93.1091 49.1465 90.7561 50.7607L70.7682 64.4724C65.4846 68.0969 58.5154 68.0969 53.2318 64.4724L33.2439 50.7607C30.8909 49.1465 30.292 45.9305 31.9061 43.5774Z" fill="#6E41E2" />
  <defs>
    <filter id="filter0_bi_666_19733" x="-34.6665" y="-24.333" width="193.333" height="172.667" filterUnits="userSpaceOnUse" color-interpolation-filters="sRGB">
      <feFlood flood-opacity="0" result="BackgroundImageFix" />
      <feGaussianBlur in="BackgroundImage" stdDeviation="22.5" />
      <feComposite in2="SourceAlpha" operator="in" result="effect1_backgroundBlur_666_19733" />
      <feBlend mode="normal" in="SourceGraphic" in2="effect1_backgroundBlur_666_19733" result="shape" />
      <feColorMatrix in="SourceAlpha" type="matrix" values="0 0 0 0 0 0 0 0 0 0 0 0 0 0 0 0 0 0 127 0" result="hardAlpha" />
      <feOffset />
      <feGaussianBlur stdDeviation="22.5" />
      <feComposite in2="hardAlpha" operator="arithmetic" k2="-1" k3="1" />
      <feColorMatrix type="matrix" values="0 0 0 0 0.0941176 0 0 0 0 0.521569 0 0 0 0 0.94902 0 0 0 0.1 0" />
      <feBlend mode="normal" in2="shape" result="effect2_innerShadow_666_19733" />
    </filter>
    <linearGradient id="paint0_linear_666_19733" x1="16.7918" y1="22.0003" x2="66.1813" y2="126.254" gradientUnits="userSpaceOnUse">
      <stop stop-color="#770DFF" stop-opacity="0.1" />
      <stop offset="1" stop-color="#950DFF" stop-opacity="0" />
    </linearGradient>
  </defs>
</svg>
  