<svg viewBox="0 0 14 14" fill="none" xmlns="http://www.w3.org/2000/svg">
<g clip-path="url(#clip0_329_2339)">
<path fill-rule="evenodd" clip-rule="evenodd" d="M5.45503 3.70503C5.72839 3.43166 6.17161 3.43166 6.44497 3.70503L9.24497 6.50503C9.51834 6.77839 9.51834 7.22161 9.24497 7.49497L6.44497 10.295C6.17161 10.5683 5.72839 10.5683 5.45503 10.295C5.18166 10.0216 5.18166 9.57839 5.45503 9.30503L7.76005 7L5.45503 4.69497C5.18166 4.42161 5.18166 3.97839 5.45503 3.70503Z" fill="#6E41E2"/>
<path fill-rule="evenodd" clip-rule="evenodd" d="M2.05025 2.05025C3.36301 0.737498 5.14348 0 7 0C8.85652 0 10.637 0.737498 11.9497 2.05025C13.2625 3.36301 14 5.14348 14 7C14 8.85652 13.2625 10.637 11.9497 11.9497C10.637 13.2625 8.85652 14 7 14C5.14348 14 3.36301 13.2625 2.05025 11.9497C0.737498 10.637 0 8.85652 0 7C0 5.14348 0.737498 3.36301 2.05025 2.05025ZM7 1.4C5.51479 1.4 4.09041 1.99 3.0402 3.0402C1.99 4.09041 1.4 5.51479 1.4 7C1.4 8.48521 1.99 9.90959 3.0402 10.9598C4.09041 12.01 5.51479 12.6 7 12.6C8.48521 12.6 9.90959 12.01 10.9598 10.9598C12.01 9.90959 12.6 8.48521 12.6 7C12.6 5.51479 12.01 4.09041 10.9598 3.0402C9.90959 1.99 8.48521 1.4 7 1.4Z" fill="#6E41E2"/>
</g>
<defs>
<clipPath id="clip0_329_2339">
<rect width="14" height="14" fill="white"/>
</clipPath>
</defs>
</svg>
