<svg width="17" height="17" viewBox="0 0 17 17" fill="none" xmlns="http://www.w3.org/2000/svg">
  <path d="M8.49996 15.5833C6.62083 15.585 4.81817 14.8393 3.48942 13.5105C2.16067 12.1818 1.41494 10.3791 1.41663 8.49999V8.35833C1.47456 5.51948 3.22132 2.98927 5.8553 1.92883C8.48928 0.868385 11.5019 1.48246 13.5107 3.48924C15.5383 5.51513 16.1451 8.56327 15.048 11.2112C13.9509 13.8592 11.3662 15.585 8.49996 15.5833ZM8.49996 9.49874L10.3345 11.3333L11.3333 10.3346L9.49871 8.49999L11.3333 6.66541L10.3345 5.66666L8.49996 7.50124L6.66538 5.66666L5.66663 6.66541L7.50121 8.49999L5.66663 10.3346L6.66538 11.3333L8.49996 9.49945V9.49874Z" fill="#181624" />
</svg>
  