<svg width="17" height="17" viewBox="0 0 17 17" fill="none" xmlns="http://www.w3.org/2000/svg">
  <path d="M9.78913 15.5833H7.2108C6.87796 15.5833 6.58998 15.3517 6.51875 15.0266L6.23046 13.6921C5.84587 13.5236 5.4812 13.3129 5.14317 13.0638L3.84196 13.4782C3.52463 13.5794 3.17966 13.4458 3.01321 13.1573L1.72121 10.9253C1.55659 10.6367 1.6133 10.2726 1.85792 10.0477L2.8673 9.12688C2.82139 8.70975 2.82139 8.28884 2.8673 7.87171L1.85792 6.95301C1.61294 6.72802 1.5562 6.36347 1.72121 6.07467L3.01038 3.8413C3.17683 3.55279 3.5218 3.41923 3.83913 3.52042L5.14034 3.9348C5.31322 3.8067 5.49318 3.68846 5.67938 3.58063C5.85812 3.47983 6.04207 3.38856 6.23046 3.30721L6.51946 1.97413C6.59035 1.64898 6.87801 1.41702 7.2108 1.41667H9.78913C10.1219 1.41702 10.4096 1.64898 10.4805 1.97413L10.7723 3.30792C10.9712 3.39541 11.1649 3.49427 11.3524 3.60401C11.5276 3.70514 11.6969 3.81605 11.8596 3.93621L13.1615 3.52184C13.4786 3.42102 13.8232 3.55453 13.9895 3.84271L15.2787 6.07609C15.4433 6.36472 15.3866 6.72883 15.142 6.95371L14.1326 7.87455C14.1785 8.29168 14.1785 8.71258 14.1326 9.12971L15.142 10.0505C15.3866 10.2754 15.4433 10.6395 15.2787 10.9282L13.9895 13.1615C13.8232 13.4497 13.4786 13.5832 13.1615 13.4824L11.8596 13.068C11.6948 13.1894 11.5237 13.3017 11.3468 13.4045C11.161 13.5121 10.9695 13.6093 10.773 13.6956L10.4805 15.0266C10.4093 15.3515 10.1217 15.5831 9.78913 15.5833ZM8.49713 5.66667C6.93232 5.66667 5.6638 6.9352 5.6638 8.50001C5.6638 10.0648 6.93232 11.3333 8.49713 11.3333C10.0619 11.3333 11.3305 10.0648 11.3305 8.50001C11.3305 6.9352 10.0619 5.66667 8.49713 5.66667Z" fill="#181624" />
</svg>
  